#!OML:ASF F:\VICON\USERDATA\INSTALL\rory3\rory3.ASF
:FULLY-SPECIFIED
:DEGREES
1085
root -0.612083 18.1626 3.4957 -360.957 -1.35907 1.11702
lowerback 6.42365 0.210516 -1.62875
upperback -0.403186 0.159821 0.121225
thorax -4.02571 0.115173 1.02455
lowerneck -20.8527 -6.96079 -13.3014
upperneck 29.2463 -9.12792 11.1435
head 14.8312 -3.94288 5.12231
rclavicle 1.52195e-016 -2.48481e-015
rhumerus -33.309 -9.13704 -84.7142
rradius 30.0947
rwrist 7.64763
rhand -14.7294 7.90046
rfingers 7.12502
rthumb 11.4257 -21.7682
lclavicle 1.52195e-016 -2.48481e-015
lhumerus -36.4506 3.55813 85.5562
lradius 33.1999
lwrist -4.80796
lhand -16.7544 28.0555
lfingers 7.12502
lthumb 9.47229 57.8226
rfemur -2.00494 2.57602 20.8208
rtibia 20.6056
rfoot -12.8915 -4.49086
rtoes -1.58757
lfemur 4.75983 -2.05724 -21.4835
ltibia 5.93427
lfoot -4.26959 -2.65075
ltoes -8.16403
1086
root -0.606113 18.1611 3.49957 -360.951 -1.42214 1.09048
lowerback 6.43943 0.241686 -1.60046
upperback -0.423192 0.202547 0.107615
thorax -4.05646 0.135992 0.99032
lowerneck -20.8785 -6.96091 -13.235
upperneck 29.269 -9.14602 11.1261
head 14.8449 -3.9446 5.10031
rclavicle -7.51965e-015 -3.8763e-015
rhumerus -33.3074 -9.15047 -84.7074
rradius 30.1799
rwrist 7.68877
rhand -14.6966 7.72287
rfingers 7.12502
rthumb 11.4574 -21.944
lclavicle -7.51965e-015 -3.8763e-015
lhumerus -36.4902 3.57022 85.5289
lradius 33.2995
lwrist -5.18743
lhand -16.6077 28.8835
lfingers 7.12502
lthumb 9.61384 58.6441
rfemur -2.06303 2.67049 20.8372
rtibia 20.6993
rfoot -12.9118 -4.53938
rtoes -1.61288
lfemur 4.83037 -1.99224 -21.4798
ltibia 5.81369
lfoot -4.26181 -2.65343
ltoes -8.37416
1087
root -0.599421 18.1611 3.50285 -360.966 -1.46352 1.09162
lowerback 6.47679 0.246963 -1.61166
upperback -0.447203 0.2083 0.118815
thorax -4.10271 0.139725 1.00752
lowerneck -20.8248 -6.98606 -13.291
upperneck 29.2552 -9.16631 11.1189
head 14.8332 -3.96234 5.10247
rclavicle -4.24436e-015 -2.78299e-015
rhumerus -33.3263 -9.0475 -84.6854
rradius 30.2565
rwrist 7.65532
rhand -14.8229 8.01171
rfingers 7.12502
rthumb 11.3356 -21.6619
lclavicle -4.24436e-015 -2.78299e-015
lhumerus -36.5711 3.61064 85.5222
lradius 33.3948
lwrist -5.59426
lhand -17.516 26.5274
lfingers 7.12502
lthumb 8.73742 56.3265
rfemur -2.07833 2.70736 20.8139
rtibia 20.76
rfoot -12.9295 -4.53447
rtoes -1.67465
lfemur 4.9344 -1.94733 -21.511
ltibia 5.67484
lfoot -4.20983 -2.68115
ltoes -8.28011
1088
root -0.591412 18.1612 3.50329 -360.972 -1.47252 1.14286
lowerback 6.55811 0.248073 -1.66118
upperback -0.514887 0.203918 0.120758
thorax -4.21894 0.140042 1.03754
lowerneck -20.6721 -7.00847 -13.3793
upperneck 29.2601 -9.18877 11.1187
head 14.811 -3.98715 5.11486
rclavicle 2.54382e-015 1.49089e-015
rhumerus -33.3262 -8.98817 -84.6102
rradius 30.143
rwrist 7.66453
rhand -15.0016 8.41186
rfingers 7.12502
rthumb 11.1632 -21.2712
lclavicle 2.54382e-015 1.49089e-015
lhumerus -36.6693 3.63388 85.5681
lradius 33.3418
lwrist -5.67485
lhand -18.3595 25.0534
lfingers 7.12502
lthumb 7.92338 54.8849
rfemur -2.1 2.61679 20.7132
rtibia 20.7858
rfoot -12.9334 -4.45884
rtoes -1.83471
lfemur 5.0047 -1.93416 -21.5996
ltibia 5.55454
lfoot -4.14537 -2.70083
ltoes -8.29865
1089
root -0.58419 18.1622 3.5063 -360.915 -1.47544 1.16747
lowerback 6.55079 0.254735 -1.69132
upperback -0.587 0.210205 0.126877
thorax -4.2901 0.144986 1.0601
lowerneck -20.6042 -7.01333 -13.4324
upperneck 29.2965 -9.19761 11.1411
head 14.8188 -3.99668 5.13458
rclavicle 2.75969e-015 5.26779e-015
rhumerus -33.3164 -8.87387 -84.5763
rradius 30.0745
rwrist 7.54789
rhand -14.9763 8.31126
rfingers 7.12502
rthumb 11.1876 -21.3705
lclavicle 2.75969e-015 5.26779e-015
lhumerus -36.7634 3.68542 85.599
lradius 33.3091
lwrist -5.82578
lhand -18.3908 25.4553
lfingers 7.12502
lthumb 7.8932 55.2879
rfemur -2.16062 2.64363 20.652
rtibia 20.7969
rfoot -12.9456 -4.47432
rtoes -1.89979
lfemur 5.02566 -1.92931 -21.6551
ltibia 5.4303
lfoot -4.08131 -2.66641
ltoes -8.65511
1090
root -0.57863 18.1627 3.50857 -360.852 -1.46248 1.19086
lowerback 6.50457 0.274036 -1.73882
upperback -0.614897 0.232546 0.120562
thorax -4.29394 0.157317 1.07804
lowerneck -20.5726 -7.02455 -13.4322
upperneck 29.2369 -9.2278 11.1838
head 14.7928 -4.00448 5.1442
rclavicle -1.17252e-015 -1.09332e-015
rhumerus -33.2854 -8.86352 -84.5633
rradius 30.1214
rwrist 7.42909
rhand -14.7769 7.90638
rfingers 7.12502
rthumb 11.3799 -21.7648
lclavicle -1.17252e-015 -1.09332e-015
lhumerus -36.8015 3.74111 85.5896
lradius 33.3421
lwrist -6.06957
lhand -17.9575 25.5986
lfingers 7.12502
lthumb 8.31138 55.4151
rfemur -2.21724 2.74976 20.6191
rtibia 20.8241
rfoot -12.9539 -4.60863
rtoes -2.05081
lfemur 5.05931 -1.94121 -21.6925
ltibia 5.25321
lfoot -3.9804 -2.68083
ltoes -8.87045
1091
root -0.572762 18.1656 3.50831 -360.769 -1.4669 1.25917
lowerback 6.46375 0.301267 -1.80291
upperback -0.655221 0.262809 0.0874129
thorax -4.31398 0.173883 1.07671
lowerneck -20.4741 -7.02474 -13.4934
upperneck 29.1193 -9.25206 11.3128
head 14.7346 -4.00744 5.20108
rclavicle -5.9946e-016 -2.78299e-015
rhumerus -33.2886 -8.84317 -84.5598
rradius 30.1895
rwrist 7.39445
rhand -14.6951 7.76346
rfingers 7.12502
rthumb 11.4588 -21.9034
lclavicle -5.9946e-016 -2.78299e-015
lhumerus -36.7978 3.77482 85.5655
lradius 33.3014
lwrist -6.24021
lhand -17.6148 25.462
lfingers 7.12502
lthumb 8.64208 55.2651
rfemur -2.31871 2.79481 20.5241
rtibia 20.8352
rfoot -12.9341 -4.65272
rtoes -1.88855
lfemur 5.00355 -1.9368 -21.7775
ltibia 5.16957
lfoot -3.94026 -2.68618
ltoes -9.10232
1092
root -0.56628 18.1661 3.50933 -360.732 -1.42865 1.28298
lowerback 6.45486 0.301614 -1.80342
upperback -0.664202 0.26227 0.0627301
thorax -4.31817 0.17343 1.0515
lowerneck -20.4559 -7.01068 -13.4944
upperneck 29.0563 -9.23885 11.3488
head 14.7025 -3.9973 5.21665
rclavicle -1.31695e-015 -1.98785e-015
rhumerus -33.2815 -8.79169 -84.5766
rradius 30.2224
rwrist 7.37746
rhand -14.7689 8.10382
rfingers 7.12502
rthumb 11.3877 -21.567
lclavicle -1.31695e-015 -1.98785e-015
lhumerus -36.729 3.83925 85.5323
lradius 33.1884
lwrist -6.36216
lhand -17.5951 25.3436
lfingers 7.12502
lthumb 8.66112 55.1459
rfemur -2.37816 2.69484 20.4641
rtibia 20.8581
rfoot -12.9539 -4.58181
rtoes -1.75931
lfemur 5.00415 -1.97433 -21.8176
ltibia 5.0781
lfoot -3.89755 -2.67931
ltoes -8.83412
1093
root -0.560525 18.1632 3.51096 -360.764 -1.39384 1.25843
lowerback 6.45377 0.292656 -1.78441
upperback -0.588999 0.252629 0.0644224
thorax -4.23898 0.167026 1.0437
lowerneck -20.6203 -7.00546 -13.4238
upperneck 29.0482 -9.2233 11.3211
head 14.7262 -3.98058 5.19343
rclavicle -1.62134e-015 -3.67752e-015
rhumerus -33.1685 -8.73631 -84.6096
rradius 30.2711
rwrist 7.37764
rhand -14.8501 8.30537
rfingers 7.12502
rthumb 11.3093 -21.3697
lclavicle -1.62134e-015 -3.67752e-015
lhumerus -36.5967 3.73097 85.5861
lradius 33.1545
lwrist -6.2399
lhand -17.5836 25.5981
lfingers 7.12502
lthumb 8.67222 55.3999
rfemur -2.33167 2.63138 20.4771
rtibia 20.8728
rfoot -13.0087 -4.57689
rtoes -1.94246
lfemur 5.06534 -2.00739 -21.8044
ltibia 5.0145
lfoot -3.8697 -2.67244
ltoes -8.3871
1094
root -0.5545 18.1615 3.51301 -360.789 -1.39153 1.30426
lowerback 6.48035 0.304557 -1.84153
upperback -0.561798 0.262986 0.0474354
thorax -4.22628 0.172971 1.05714
lowerneck -20.7769 -7.02673 -13.3257
upperneck 29.1203 -9.23897 11.2112
head 14.7824 -3.98559 5.12738
rclavicle 5.90142e-016 1.78906e-015
rhumerus -33.1141 -8.71093 -84.6127
rradius 30.3437
rwrist 7.33746
rhand -14.7776 8.19265
rfingers 7.12502
rthumb 11.3793 -21.4786
lclavicle 5.90142e-016 1.78906e-015
lhumerus -36.5971 3.32973 85.7376
lradius 33.2048
lwrist -5.84432
lhand -17.5476 25.8876
lfingers 7.12502
lthumb 8.70689 55.688
rfemur -2.28683 2.5766 20.4023
rtibia 20.8668
rfoot -13.0332 -4.52138
rtoes -2.06694
lfemur 5.05551 -2.00742 -21.8781
ltibia 5.07016
lfoot -3.89226 -2.64486
ltoes -8.17275
